<svg width="300" height="99" viewBox="0 0 300 99" fill="none" xmlns="http://www.w3.org/2000/svg">
<path d="M31.7125 35.2585C30.8098 34.4148 29.3703 32.9414 29.2089 31.6945C29.2009 31.6337 29.206 31.572 29.2237 31.5134C29.2415 31.4548 29.2715 31.4007 29.3118 31.3548C29.3521 31.309 29.4017 31.2724 29.4573 31.2475C29.5129 31.2226 29.5731 31.21 29.634 31.2106C30.2524 31.2106 30.8522 31.2964 31.4333 31.468C31.6939 31.5446 31.7353 31.4794 31.5574 31.2726C30.5461 30.1125 29.3951 28.5616 29.1593 27.02C29.1496 26.9548 29.1558 26.8881 29.1772 26.8257C29.1986 26.7633 29.2347 26.707 29.2824 26.6614C29.3301 26.6158 29.3881 26.5824 29.4514 26.5638C29.5147 26.5452 29.5816 26.5421 29.6464 26.5548C30.1552 26.6581 30.6402 26.8339 31.1014 27.0821C31.393 27.2372 31.4519 27.1741 31.2782 26.8929C30.301 25.3047 29.3299 23.4343 29.1252 21.5205C29.1171 21.4434 29.1351 21.366 29.1762 21.3007C29.2173 21.2354 29.2791 21.1861 29.3516 21.1607C29.8604 20.9808 30.5243 21.5391 30.8842 21.8493C31.1469 22.0768 31.2058 22.0333 31.061 21.719C30.1148 19.6625 29.1065 17.3547 29.1903 15.1369C29.2089 14.6241 29.4416 14.4938 29.8883 14.7461C31.2906 15.5371 32.7053 17.758 33.4592 19.1662C35.5068 23.0032 37.8615 26.6726 41.8883 28.5958C42.8625 29.061 43.9266 29.5046 44.7208 30.2397C47.1965 32.5382 46.3899 36.189 45.0745 38.9434C44.4075 40.333 44.485 41.6048 45.8253 42.6284C45.9452 42.7194 46.0507 42.7049 46.1417 42.585L47.2213 41.1612C47.3041 41.0537 47.3237 40.9358 47.2803 40.8076C46.9762 39.9081 46.8553 39.4211 47.4664 38.6022C48.4137 37.3284 49.3527 36.0546 50.2834 34.7808C50.969 33.8378 52.03 33.7727 52.9266 34.4272C55.5512 36.3441 58.301 38.353 61.1758 40.454C62.2462 41.2388 62.3361 42.3554 61.5481 43.4007C60.7084 44.5195 59.8408 45.7033 58.9452 46.9523C58.3775 47.7495 57.4468 48.0845 56.5316 47.6564C56.4634 47.6251 56.3863 47.6185 56.3134 47.6377C56.2404 47.657 56.1761 47.7008 56.1314 47.7619C54.5657 49.9166 53.301 52.0517 52.3372 54.1672C51.9938 54.924 51.7787 55.7346 51.6919 56.599C51.4282 59.2542 54.5554 60.9974 56.8139 61.1339C57.513 61.1752 58.2203 61.2207 58.9359 61.2704C61.393 61.441 62.3951 63.0787 62.4385 65.3089C62.4394 65.3673 62.4572 65.4243 62.4896 65.4732C62.522 65.5221 62.5678 65.5609 62.6215 65.585C62.9959 65.7546 63.1996 66.0099 63.2327 66.3511C63.3196 67.2279 62.8966 67.6735 61.9638 67.688C59.8894 67.7211 57.544 67.7149 54.9276 67.6694C50.4002 67.5888 46.6908 66.0896 43.7994 63.1718C43.2038 62.57 42.3723 62.1637 41.6464 62.9143C41.5484 63.0156 41.4147 63.0746 41.2738 63.0786C41.133 63.0827 40.9961 63.0315 40.8925 62.936C38.9132 61.1142 36.9152 59.2728 34.8987 57.4117C34.0673 56.6455 33.9059 55.5444 34.7994 54.7162C35.4199 54.1393 36.0735 54.0514 36.7601 54.4525C36.8904 54.5291 37.0011 54.5073 37.0921 54.3874L43.8584 45.4604C43.8788 45.4331 43.8914 45.4008 43.8948 45.3669C43.8981 45.333 43.8921 45.2989 43.8774 45.2682C43.8627 45.2375 43.8398 45.2114 43.8113 45.1928C43.7828 45.1741 43.7497 45.1637 43.7156 45.1626C42.2306 45.0985 41.2565 44.3054 40.7932 42.7835C40.7761 42.7283 40.7456 42.6784 40.7044 42.6383C40.6632 42.5982 40.6126 42.5692 40.5574 42.554C38.0362 41.8467 35.6102 40.8438 33.2792 39.5452C31.6691 38.6488 29.9163 37.4204 29.15 35.7082C29.1045 35.6048 29.1334 35.5304 29.2368 35.4849C30.0062 35.1468 30.8253 35.3174 31.6257 35.4353C31.8428 35.4663 31.8718 35.4074 31.7125 35.2585ZM40.3061 35.1561L40.2131 35.2461C40.0848 35.3743 39.9442 35.3898 39.7911 35.2926C37.4002 33.7872 35.3268 31.9943 33.5709 29.914C32.6308 28.7974 31.5667 27.9382 30.2575 27.3612C29.8749 27.1917 29.7694 27.2982 29.9411 27.6807C30.2741 28.4231 30.696 29.1386 31.2069 29.8272C33.4116 32.7905 36.3485 35.3329 40.0176 37.4546C40.1252 37.5166 40.1769 37.6107 40.1727 37.7368C40.1707 37.8195 40.1345 37.8857 40.0641 37.9353C40.0037 37.9762 39.933 37.9993 39.8601 38.002C39.7871 38.0047 39.7149 37.987 39.6515 37.9508C37.4613 36.6791 35.423 35.152 33.5367 33.3695C32.5347 32.4234 31.3651 31.9643 29.9969 31.8527C29.9787 31.8507 29.9602 31.8535 29.9434 31.8608C29.9265 31.8682 29.9119 31.8798 29.901 31.8945C29.89 31.9092 29.8831 31.9266 29.8808 31.9448C29.8786 31.963 29.8812 31.9815 29.8883 31.9985C30.0517 32.4058 30.2813 32.7842 30.5771 33.1337C32.9618 35.946 36.0114 38.2372 39.726 40.0074C39.8083 40.0477 39.8749 40.1142 39.9152 40.1966C40.0062 40.3951 39.9907 40.5533 39.8687 40.6711C39.8129 40.727 39.7487 40.7384 39.6763 40.7053C37.9266 39.9215 36.0042 38.7263 33.909 37.1196C32.8439 36.3007 31.5833 35.8881 30.1272 35.8819C29.9411 35.8819 29.9018 35.9574 30.0093 36.1084C31.0828 37.6252 32.8914 38.7542 34.545 39.5545C36.3878 40.4457 38.3227 41.1964 40.3496 41.8064C40.3752 41.8142 40.4022 41.8158 40.4286 41.8112C40.4549 41.8066 40.4798 41.7959 40.5013 41.7799C40.5227 41.7639 40.5401 41.7431 40.552 41.7191C40.5639 41.6952 40.57 41.6688 40.5698 41.642L40.5543 40.1997C40.5523 39.9929 40.6505 39.8616 40.849 39.8057C40.907 39.7892 40.9649 39.7902 41.0228 39.8088C41.0609 39.8217 41.0947 39.845 41.1204 39.8763C41.1462 39.9075 41.1628 39.9453 41.1686 39.9856C41.3237 41.1178 41.1965 42.4609 41.8263 43.4473C42.3268 44.231 43.1727 44.6043 44.364 44.567C44.513 44.5629 44.6329 44.5029 44.7239 44.3871L45.4002 43.5217C45.4595 43.4463 45.4866 43.3504 45.4755 43.2547C45.4645 43.1589 45.4163 43.071 45.3413 43.0099C43.9804 41.9119 43.6381 40.6422 44.3144 39.2009C45.5678 36.5147 46.9545 32.076 43.5636 30.1994C42.9039 29.8354 42.2162 29.4849 41.5005 29.1479C39.0311 27.9878 37.1572 26.0181 35.4416 23.7352C35.3589 23.6235 34.6391 22.3942 33.2823 20.0471C32.2482 18.2584 31.1955 16.7757 30.1241 15.5991C30.1037 15.5764 30.0771 15.5602 30.0476 15.5525C30.0181 15.5449 29.9869 15.546 29.9577 15.5558C29.9286 15.5657 29.9027 15.5837 29.8832 15.6079C29.8638 15.6321 29.8515 15.6614 29.848 15.6922C29.8191 15.9817 29.8346 16.2732 29.8946 16.5669C31.1293 22.6558 35.1934 27.9599 40.3682 31.5177C40.4114 31.5467 40.446 31.5869 40.4682 31.6341C40.4905 31.6812 40.4995 31.7334 40.4944 31.7853C40.4893 31.8371 40.4703 31.8866 40.4393 31.9285C40.4084 31.9704 40.3666 32.0032 40.3185 32.0233C40.1738 32.0853 40.0238 32.0615 39.8687 31.9519C37.1862 30.0846 34.9494 27.842 33.1583 25.2241C32.3454 24.0361 31.3527 22.9473 30.2172 22.0726C29.8304 21.7728 29.7032 21.8576 29.8356 22.327C30.1583 23.4602 30.6091 24.5303 31.1882 25.5374C33.3206 29.2409 36.3506 32.3614 40.2782 34.8987C40.2989 34.9122 40.3164 34.9302 40.3294 34.9513C40.3423 34.9724 40.3504 34.9962 40.3531 35.0208C40.3557 35.0454 40.3529 35.0703 40.3448 35.0937C40.3367 35.1171 40.3235 35.1384 40.3061 35.1561ZM52.7405 37.1537L53.606 35.9502C53.6763 35.8509 53.665 35.763 53.5719 35.6865C52.8863 35.1065 51.6236 33.965 50.7953 35.0879C49.7674 36.4878 48.7963 37.8144 47.8821 39.0675C47.787 39.1983 47.7186 39.3466 47.6807 39.5037C47.6428 39.6609 47.6362 39.8239 47.6612 39.9835C47.6863 40.1431 47.7425 40.2961 47.8268 40.4338C47.911 40.5714 48.0215 40.6911 48.152 40.7859L56.513 46.8717C57.2596 47.4155 57.9049 47.3142 58.4488 46.5677C59.3382 45.3518 60.2399 44.1193 61.1541 42.8703C62.0879 41.5893 60.6981 40.8666 59.8263 40.2772C59.7831 40.2489 59.7308 40.2382 59.6804 40.2475C59.63 40.2567 59.5855 40.2852 59.5564 40.3268L58.9297 41.2295C58.8263 41.3763 58.6857 41.4425 58.5078 41.428L58.4023 41.4218C58.3678 41.4196 58.3345 41.4081 58.3059 41.3886C58.2774 41.369 58.2545 41.3421 58.2397 41.3106C58.2248 41.2791 58.2186 41.244 58.2215 41.2091C58.2245 41.1741 58.2366 41.1405 58.2565 41.1116L58.9421 40.1221C59.0869 39.9153 59.0579 39.7365 58.8553 39.5855L57.2886 38.4006C57.0693 38.2352 56.879 38.2641 56.7177 38.4875L55.0393 40.8107C54.9991 40.8669 54.9411 40.9074 54.8749 40.9255C54.6598 40.9813 54.5336 40.9141 54.4964 40.7239C54.4695 40.5874 54.4974 40.4633 54.5802 40.3517L56.2865 38.0532C56.4106 37.8878 56.3899 37.743 56.2244 37.619L54.5057 36.3441C54.3113 36.1994 54.1458 36.2273 54.0093 36.4279L53.4013 37.315C53.3731 37.356 53.333 37.3875 53.2865 37.4053C53.2399 37.423 53.189 37.4261 53.1407 37.4142L52.8087 37.3336C52.697 37.3067 52.6743 37.2467 52.7405 37.1537ZM53.2927 46.1614C53.3458 46.1994 53.3819 46.2567 53.3935 46.321C53.4051 46.3852 53.3912 46.4515 53.3547 46.5057L52.7436 47.4145C52.7065 47.4693 52.6925 47.5366 52.7047 47.6016C52.7169 47.6666 52.7543 47.7243 52.8087 47.7619L54.332 48.8196C54.3594 48.839 54.3903 48.8526 54.423 48.8598C54.4558 48.867 54.4896 48.8676 54.5225 48.8615C54.5555 48.8555 54.5869 48.8429 54.6149 48.8245C54.6429 48.8061 54.667 48.7823 54.6857 48.7545L55.6381 47.3339C55.6745 47.2797 55.6884 47.2134 55.6768 47.1491C55.6653 47.0849 55.6291 47.0276 55.576 46.9896L48.0466 41.4745C47.9936 41.4358 47.9277 41.4194 47.8627 41.4286C47.7978 41.4379 47.7391 41.4722 47.6991 41.5241L46.6133 42.9355C46.5928 42.9622 46.5779 42.9927 46.5695 43.0253C46.5611 43.0578 46.5593 43.0917 46.5642 43.125C46.5691 43.1582 46.5806 43.1902 46.5981 43.2189C46.6156 43.2476 46.6387 43.2725 46.666 43.2922L48.4592 44.5732C48.5125 44.6116 48.5787 44.6276 48.6437 44.6177C48.7086 44.6078 48.7671 44.573 48.8067 44.5205L49.455 43.6613C49.4946 43.6088 49.5531 43.574 49.618 43.5641C49.683 43.5542 49.7492 43.5702 49.8025 43.6086L53.2927 46.1614ZM48.1605 45.4047C48.1979 45.3536 48.2134 45.2897 48.2038 45.2271C48.1941 45.1646 48.1599 45.1084 48.1088 45.071L46.2762 43.7299C46.2251 43.6925 46.1612 43.677 46.0986 43.6867C46.036 43.6963 45.9798 43.7305 45.9423 43.7816L45.3267 44.6227C45.2893 44.6738 45.2737 44.7376 45.2834 44.8002C45.2931 44.8628 45.3272 44.919 45.3784 44.9564L47.2109 46.2974C47.2621 46.3349 47.326 46.3504 47.3886 46.3407C47.4512 46.331 47.5074 46.2969 47.5448 46.2458L48.1605 45.4047ZM50.8829 45.3002C50.8946 45.284 50.903 45.2657 50.9076 45.2463C50.9122 45.2268 50.9129 45.2067 50.9097 45.187C50.9065 45.1673 50.8995 45.1484 50.889 45.1314C50.8785 45.1144 50.8647 45.0997 50.8485 45.088L49.827 44.3514C49.7943 44.3278 49.7535 44.3182 49.7137 44.3246C49.6739 44.3311 49.6383 44.353 49.6148 44.3857L48.6166 45.7694C48.605 45.7856 48.5966 45.8039 48.592 45.8233C48.5874 45.8428 48.5867 45.8629 48.5899 45.8826C48.593 45.9023 48.6001 45.9212 48.6106 45.9382C48.6211 45.9552 48.6348 45.9699 48.651 45.9816L49.6726 46.7182C49.7053 46.7418 49.746 46.7514 49.7858 46.745C49.8256 46.7386 49.8612 46.7166 49.8848 46.6839L50.8829 45.3002ZM52.6195 52.151C52.7456 51.9297 52.8594 51.7023 52.9607 51.4686C53.0042 51.3631 52.9804 51.2763 52.8894 51.208L51.1272 49.8898C51.0803 49.8548 51.0234 49.8356 50.9649 49.8351C50.9063 49.8345 50.8491 49.8526 50.8015 49.8867C48.7539 51.3693 46.362 49.5362 46.9762 47.1602C47.0176 46.9989 46.9711 46.8696 46.8366 46.7724L44.9504 45.4107C44.9123 45.3834 44.8651 45.372 44.8187 45.3789C44.7724 45.3859 44.7306 45.4107 44.7022 45.448L40.7901 50.5877C40.7436 50.6485 40.7135 50.72 40.7027 50.7955C40.6918 50.871 40.7005 50.9479 40.7281 51.0188C41.9659 54.3347 44.5068 57.2039 47.3423 59.4C48.7012 60.4546 51.3692 62.142 52.97 60.9291C53.0164 60.8942 53.054 60.8488 53.0797 60.7967C53.1055 60.7446 53.1187 60.6871 53.1184 60.6287C53.1181 60.5704 53.1043 60.5128 53.078 60.4605C53.0517 60.4082 53.0137 60.3627 52.9669 60.3274C52.1562 59.7215 51.5874 58.9729 51.2606 58.0817C50.5936 56.264 51.6857 53.7701 52.6195 52.151ZM52.5936 46.6021C52.6086 46.5813 52.6193 46.5577 52.6251 46.5327C52.6309 46.5077 52.6317 46.4818 52.6275 46.4565C52.6233 46.4311 52.6142 46.4069 52.6006 46.3851C52.5871 46.3633 52.5694 46.3444 52.5485 46.3295L51.595 45.647C51.5741 45.632 51.5505 45.6213 51.5255 45.6155C51.5005 45.6097 51.4746 45.6089 51.4493 45.6131C51.424 45.6173 51.3997 45.6264 51.3779 45.64C51.3561 45.6535 51.3372 45.6712 51.3223 45.6921L50.3868 46.9986C50.3718 47.0194 50.3612 47.043 50.3553 47.068C50.3495 47.093 50.3487 47.1189 50.3529 47.1442C50.3571 47.1695 50.3662 47.1938 50.3798 47.2156C50.3933 47.2374 50.4111 47.2563 50.4319 47.2712L51.3854 47.9537C51.4063 47.9687 51.4299 47.9793 51.4549 47.9852C51.4799 47.991 51.5058 47.9918 51.5311 47.9876C51.5565 47.9834 51.5807 47.9743 51.6025 47.9607C51.6243 47.9472 51.6432 47.9295 51.6581 47.9086L52.5936 46.6021ZM47.4106 47.7588C47.3829 47.8169 47.3774 47.8831 47.3951 47.9449L47.6898 48.9654C47.7038 49.0124 47.7307 49.0546 47.7674 49.0872C47.8041 49.1198 47.8491 49.1415 47.8975 49.1499C47.9458 49.1583 47.9956 49.153 48.0411 49.1347C48.0866 49.1163 48.1261 49.0856 48.1552 49.0461L49.2782 47.5014C49.3182 47.4459 49.3351 47.377 49.3253 47.3092C49.3154 47.2415 49.2796 47.1803 49.2255 47.1384L48.3599 46.4809C48.3287 46.4567 48.2924 46.4398 48.2538 46.4315C48.2151 46.4232 48.1751 46.4236 48.1367 46.4329C48.0983 46.4421 48.0624 46.4598 48.0318 46.4848C48.0012 46.5097 47.9765 46.5413 47.9597 46.577L47.4106 47.7588ZM48.5895 49.4307C48.5635 49.467 48.5484 49.51 48.5459 49.5546C48.5434 49.5992 48.5537 49.6436 48.5755 49.6826C48.5973 49.7216 48.6297 49.7537 48.669 49.775C48.7082 49.7962 48.7528 49.8059 48.7973 49.8029L50.0383 49.7068C50.0945 49.7025 50.1473 49.6783 50.1872 49.6385L51.0249 48.7979C51.0492 48.7743 51.0681 48.7456 51.0804 48.714C51.0926 48.6824 51.0979 48.6485 51.0958 48.6146C51.0938 48.5807 51.0844 48.5477 51.0684 48.5178C51.0524 48.4879 51.0302 48.4617 51.0031 48.4412L50.1065 47.765C50.0817 47.7456 50.0531 47.7314 50.0227 47.7233C49.9922 47.7151 49.9604 47.7131 49.9292 47.7175C49.8979 47.7218 49.8679 47.7324 49.8408 47.7485C49.8137 47.7647 49.7901 47.7861 49.7715 47.8115L48.5895 49.4307ZM54.1533 49.6376C54.1762 49.6054 54.1854 49.5655 54.1789 49.5265C54.1724 49.4876 54.1507 49.4528 54.1185 49.4299L52.3455 48.1654C52.3133 48.1425 52.2734 48.1333 52.2344 48.1398C52.1955 48.1463 52.1607 48.168 52.1378 48.2002L51.4207 49.2052C51.3978 49.2374 51.3886 49.2773 51.3951 49.3162C51.4016 49.3552 51.4233 49.39 51.4555 49.4129L53.2285 50.6773C53.2607 50.7003 53.3006 50.7095 53.3396 50.703C53.3785 50.6965 53.4133 50.6748 53.4362 50.6426L54.1533 49.6376ZM53.6526 61.0625C52.8025 62.083 51.6143 62.1792 50.4354 61.7697C46.5822 60.4298 43.1603 56.8285 41.1221 53.4103C40.7849 52.8458 40.5161 52.2616 40.3154 51.6578C40.3047 51.6255 40.2854 51.5968 40.2595 51.5748C40.2336 51.5527 40.2021 51.5382 40.1685 51.5328C40.135 51.5273 40.1005 51.5312 40.069 51.5439C40.0375 51.5567 40.01 51.5778 39.9897 51.6051L37.4861 54.8682C37.4488 54.9158 37.4519 54.9602 37.4954 55.0016C40.2999 57.6464 43.1396 60.1403 46.0145 62.4832C48.5812 64.5717 51.4861 65.5622 54.7291 65.4547C54.8553 65.4485 54.9039 65.3834 54.8749 65.2593C54.5895 64.0496 54.7653 62.8771 55.4023 61.7418C55.4114 61.7252 55.4167 61.7069 55.418 61.688C55.4192 61.6691 55.4164 61.65 55.4096 61.6321C55.4029 61.6142 55.3924 61.5979 55.3788 61.5842C55.3653 61.5705 55.3489 61.5597 55.331 61.5526L53.8914 61.0005C53.7984 60.9653 53.7187 60.986 53.6526 61.0625ZM36.7384 55.1877C35.606 54.13 34.0455 55.7832 35.271 56.903C37.2213 58.6876 39.1696 60.4866 41.1159 62.3002C41.211 62.3891 41.3103 62.3932 41.4137 62.3126C42.2989 61.6343 43.1872 61.7398 44.0786 62.629C46.9659 65.5116 50.5161 66.9787 54.7291 67.0304C57.2048 67.0594 59.6836 67.0687 62.1655 67.0584C62.4261 67.0563 62.5926 66.9301 62.665 66.6799C62.7105 66.5207 62.6236 66.3522 62.4044 66.1743C62.3181 66.1061 62.2121 66.0689 62.1034 66.0689C59.4416 66.0792 56.7839 66.0771 54.1303 66.0627C50.9949 66.0441 48.0972 64.9605 45.4375 62.812C42.7612 60.649 39.8615 58.1075 36.7384 55.1877ZM56.0755 61.8411C55.4178 62.906 55.2172 64.0186 55.4737 65.1786C55.4914 65.2603 55.5367 65.3334 55.6022 65.3859C55.6677 65.4384 55.7493 65.467 55.8335 65.4671L61.6598 65.4547C61.7798 65.4547 61.8397 65.3947 61.8397 65.2748C61.8366 61.5743 58.9452 61.7666 56.2648 61.7387C56.227 61.7379 56.1898 61.7469 56.1566 61.7648C56.1234 61.7828 56.0955 61.8091 56.0755 61.8411Z" fill="#5427C0"/>
<path d="M23.7176 17.4414C23.6974 17.4373 23.6784 17.4288 23.6617 17.4167C23.645 17.4046 23.631 17.3891 23.6208 17.3713C23.6105 17.3534 23.6042 17.3335 23.6021 17.313C23.6001 17.2925 23.6025 17.2718 23.609 17.2522C23.6938 16.9917 23.8852 16.8831 24.183 16.9265C24.2636 16.9389 24.3174 16.9844 24.3443 17.063C24.3815 17.1643 24.3846 17.2667 24.3536 17.3701C24.3185 17.4962 24.2368 17.5459 24.1085 17.519L23.7176 17.4414Z" fill="#5427C0"/>
<path d="M28.0548 16.9111H25.9328C25.7871 16.9111 25.6691 17.0292 25.6691 17.1748V17.2678C25.6691 17.4135 25.7871 17.5315 25.9328 17.5315H28.0548C28.2004 17.5315 28.3185 17.4135 28.3185 17.2678V17.1748C28.3185 17.0292 28.2004 16.9111 28.0548 16.9111Z" fill="#5427C0"/>
<path d="M21.0713 20.9436H16.2937C16.1257 20.9436 15.9896 21.0797 15.9896 21.2476V21.26C15.9896 21.4279 16.1257 21.564 16.2937 21.564H21.0713C21.2392 21.564 21.3754 21.4279 21.3754 21.26V21.2476C21.3754 21.0797 21.2392 20.9436 21.0713 20.9436Z" fill="#5427C0"/>
<path d="M26.7859 20.9497H22.8645C22.7 20.9497 22.5667 21.083 22.5667 21.2475V21.2661C22.5667 21.4305 22.7 21.5639 22.8645 21.5639H26.7859C26.9504 21.5639 27.0837 21.4305 27.0837 21.2661V21.2475C27.0837 21.083 26.9504 20.9497 26.7859 20.9497Z" fill="#5427C0"/>
<path d="M12.2146 25.0235L11.0667 25.0215C10.9159 25.0212 10.7935 25.1432 10.7932 25.294L10.7932 25.325C10.7929 25.4757 10.9149 25.5981 11.0657 25.5984L12.2136 25.6004C12.3644 25.6007 12.4868 25.4787 12.4871 25.3279L12.4871 25.2969C12.4874 25.1462 12.3654 25.0237 12.2146 25.0235Z" fill="#5427C0"/>
<path d="M25.4395 25.0039H14.0414C13.9129 25.0039 13.8087 25.1081 13.8087 25.2365V25.373C13.8087 25.5015 13.9129 25.6057 14.0414 25.6057H25.4395C25.568 25.6057 25.6722 25.5015 25.6722 25.373V25.2365C25.6722 25.1081 25.568 25.0039 25.4395 25.0039Z" fill="#5427C0"/>
<path d="M9.0514 25.6272C9.28953 25.6234 9.48039 25.4816 9.4777 25.3103C9.47501 25.139 9.27978 25.0032 9.04165 25.0069C8.80352 25.0106 8.61266 25.1525 8.61535 25.3238C8.61804 25.4951 8.81326 25.6309 9.0514 25.6272Z" fill="#5427C0"/>
<path d="M25.4737 29.002H18.8532C18.7367 29.002 18.6422 29.0964 18.6422 29.2129V29.399C18.6422 29.5155 18.7367 29.6099 18.8532 29.6099H25.4737C25.5902 29.6099 25.6846 29.5155 25.6846 29.399V29.2129C25.6846 29.0964 25.5902 29.002 25.4737 29.002Z" fill="#5427C0"/>
<path d="M28.5822 29.3028C28.607 29.3772 28.5925 29.4424 28.5388 29.4982C28.4974 29.5437 28.4467 29.5696 28.3868 29.5758C27.9297 29.6213 27.4488 29.6275 26.9441 29.5944C26.8676 29.5882 26.8263 29.5468 26.82 29.4703L26.7983 29.1725C26.7966 29.1501 26.7996 29.1275 26.8071 29.1062C26.8146 29.085 26.8265 29.0656 26.842 29.0492C26.8575 29.0328 26.8762 29.0199 26.897 29.0112C26.9178 29.0025 26.9402 28.9983 26.9628 28.9988L28.3899 29.0267C28.4519 29.0288 28.5067 29.0516 28.5543 29.095C28.5936 29.1322 28.6039 29.1715 28.5853 29.2128C28.5729 29.2418 28.5719 29.2718 28.5822 29.3028Z" fill="#5427C0"/>
<path d="M19.8305 33.664C20.0292 33.664 20.1903 33.5029 20.1903 33.3041C20.1903 33.1054 20.0292 32.9443 19.8305 32.9443C19.6317 32.9443 19.4706 33.1054 19.4706 33.3041C19.4706 33.5029 19.6317 33.664 19.8305 33.664Z" fill="#5427C0"/>
<path d="M23.1722 32.9986L21.4349 32.9956C21.291 32.9953 21.1741 33.1118 21.1739 33.2557L21.1737 33.3549C21.1734 33.4988 21.2899 33.6157 21.4338 33.6159L23.1712 33.619C23.3151 33.6192 23.432 33.5028 23.4322 33.3589L23.4324 33.2596C23.4326 33.1157 23.3162 32.9989 23.1722 32.9986Z" fill="#5427C0"/>
<path d="M26.7591 32.9946L24.6743 32.9874C24.5098 32.9868 24.376 33.1196 24.3754 33.2841L24.3753 33.3151C24.3747 33.4796 24.5076 33.6134 24.6721 33.6139L26.7569 33.6212C26.9214 33.6218 27.0552 33.4889 27.0558 33.3245L27.0559 33.2935C27.0564 33.129 26.9236 32.9952 26.7591 32.9946Z" fill="#5427C0"/>
<path d="M73.4271 67.5082L77.8976 42.2593C77.9019 42.2352 77.9145 42.2134 77.9332 42.1975C77.9519 42.1817 77.9755 42.1728 78 42.1725L86.5191 42.1663C86.5347 42.166 86.5501 42.1692 86.5643 42.1757C86.5785 42.1821 86.5911 42.1916 86.6011 42.2034C86.6112 42.2153 86.6186 42.2292 86.6226 42.2443C86.6267 42.2593 86.6273 42.275 86.6246 42.2903L82.151 67.5454C82.1465 67.57 82.1335 67.5923 82.1142 67.6082C82.0949 67.6241 82.0705 67.6326 82.0455 67.6322H73.5326C73.517 67.6325 73.5016 67.6293 73.4874 67.6229C73.4732 67.6164 73.4606 67.6069 73.4505 67.5951C73.4404 67.5832 73.4331 67.5693 73.4291 67.5542C73.425 67.5392 73.4243 67.5235 73.4271 67.5082Z" fill="#5427C0"/>
<path d="M92.6773 67.6135L84.1396 67.6104C84.1251 67.6103 84.1108 67.6069 84.0977 67.6006C84.0847 67.5943 84.0731 67.5852 84.064 67.5739C84.0548 67.5627 84.0482 67.5496 84.0447 67.5355C84.0411 67.5215 84.0407 67.5068 84.0434 67.4926L88.4891 42.2717C88.4935 42.2487 88.5059 42.228 88.524 42.2132C88.5422 42.1985 88.565 42.1906 88.5884 42.191L98.6742 42.1879C98.6907 42.1876 98.707 42.1915 98.7216 42.199C98.7362 42.2066 98.7487 42.2177 98.758 42.2313L109.619 57.8459C109.631 57.8613 109.647 57.873 109.665 57.8796C109.683 57.8862 109.702 57.8874 109.721 57.8832C109.74 57.8789 109.757 57.8693 109.77 57.8555C109.783 57.8418 109.793 57.8244 109.796 57.8056L112.526 42.2686C112.531 42.2456 112.543 42.2249 112.561 42.2101C112.579 42.1954 112.602 42.1875 112.626 42.1879L121.188 42.1848C121.203 42.185 121.217 42.1884 121.23 42.1947C121.243 42.201 121.255 42.2101 121.264 42.2213C121.273 42.2326 121.28 42.2457 121.283 42.2597C121.287 42.2738 121.287 42.2884 121.284 42.3027L116.823 67.5329C116.819 67.5559 116.806 67.5766 116.788 67.5913C116.77 67.6061 116.747 67.614 116.724 67.6135L106.318 67.6198C106.302 67.62 106.286 67.6162 106.271 67.6086C106.256 67.601 106.244 67.5899 106.235 67.5763L95.6122 52.3712C95.6007 52.3558 95.5849 52.3442 95.5669 52.3375C95.5489 52.3309 95.5294 52.3297 95.5106 52.334C95.4919 52.3382 95.4749 52.3478 95.4615 52.3616C95.4481 52.3754 95.439 52.3927 95.4353 52.4115L92.7766 67.5329C92.7722 67.5559 92.7598 67.5766 92.7417 67.5913C92.7235 67.6061 92.7007 67.614 92.6773 67.6135Z" fill="#5427C0"/>
<path d="M151.536 55.8701L149.488 49.5423C149.482 49.5227 149.469 49.5055 149.453 49.4933C149.436 49.4811 149.416 49.4744 149.395 49.4741L140.851 49.471C140.828 49.4706 140.805 49.4785 140.787 49.4932C140.769 49.508 140.756 49.5287 140.752 49.5516L137.6 67.536C137.595 67.559 137.583 67.5797 137.565 67.5945C137.547 67.6092 137.524 67.6171 137.501 67.6167H128.954C128.939 67.6165 128.925 67.6131 128.912 67.6068C128.899 67.6005 128.887 67.5914 128.878 67.5802C128.869 67.5689 128.862 67.5558 128.859 67.5418C128.855 67.5277 128.855 67.513 128.857 67.4988L132.068 49.5858C132.071 49.5715 132.071 49.5569 132.067 49.5428C132.063 49.5287 132.057 49.5156 132.048 49.5044C132.039 49.4932 132.027 49.4841 132.014 49.4778C132.001 49.4715 131.987 49.4681 131.972 49.4679L120.897 49.4803C120.882 49.4805 120.868 49.4775 120.855 49.4716C120.842 49.4656 120.83 49.4569 120.82 49.446C120.811 49.4351 120.804 49.4222 120.8 49.4083C120.796 49.3944 120.795 49.3798 120.797 49.3655L121.995 42.2686C121.999 42.245 122.011 42.2236 122.029 42.2082C122.047 42.1928 122.07 42.1845 122.094 42.1848H156.118C156.139 42.1851 156.159 42.1918 156.175 42.204C156.192 42.2163 156.205 42.2334 156.211 42.2531L164.364 67.4864C164.369 67.5012 164.37 67.5169 164.368 67.5324C164.366 67.5478 164.36 67.5624 164.351 67.5751C164.341 67.5878 164.33 67.5982 164.316 67.6054C164.302 67.6126 164.287 67.6165 164.271 67.6167L155.432 67.6198C155.412 67.6195 155.392 67.6128 155.375 67.6006C155.358 67.5883 155.346 67.5712 155.339 67.5515L153.754 62.6475C153.747 62.6279 153.735 62.6107 153.718 62.5985C153.702 62.5863 153.682 62.5796 153.661 62.5793H140.364C140.35 62.5791 140.335 62.5757 140.322 62.5694C140.309 62.5631 140.298 62.554 140.288 62.5428C140.279 62.5316 140.273 62.5185 140.269 62.5044C140.266 62.4903 140.265 62.4757 140.268 62.4614L141.385 56.0655C141.388 56.0419 141.401 56.0205 141.419 56.0051C141.437 55.9897 141.46 55.9814 141.484 55.9817L151.443 56.0003C151.458 56.0001 151.474 55.9963 151.487 55.9891C151.501 55.9818 151.513 55.9715 151.522 55.9588C151.531 55.9461 151.537 55.9314 151.54 55.916C151.542 55.9006 151.541 55.8849 151.536 55.8701Z" fill="#4A27A3"/>
<path d="M207.987 60.2497L204.329 48.956C204.306 48.8836 204.271 48.8764 204.223 48.9343L201.385 52.4487C201.273 52.5851 201.211 52.5655 201.199 52.3897C201.041 50.295 200.46 48.3284 199.455 46.4901C199.036 45.7239 198.462 45.1656 197.95 44.477C197.882 44.3839 197.885 44.294 197.96 44.2071L199.523 42.3367C199.608 42.2354 199.716 42.1847 199.846 42.1847H211.108C211.152 42.1849 211.195 42.1988 211.23 42.2244C211.266 42.25 211.292 42.2861 211.306 42.3274L219.444 67.4894C219.449 67.504 219.45 67.5197 219.448 67.5349C219.445 67.5502 219.439 67.5647 219.43 67.5772C219.421 67.5897 219.409 67.5998 219.395 67.6066C219.381 67.6135 219.366 67.6169 219.351 67.6166C205.394 67.6228 191.389 67.6217 177.335 67.6135C176.14 67.6135 174.93 67.477 173.705 67.204C172.52 66.9414 171.441 66.4854 170.466 65.8361C168.355 64.4258 167.001 62.5482 166.405 60.2032C166.17 59.2768 166.061 58.1798 166.08 56.9122C166.1 55.6404 166.31 54.3852 166.709 53.1466C167.648 50.2453 169.325 47.7763 171.738 45.7394C174.354 43.534 177.689 42.3274 181.098 42.2282C183.359 42.162 185.669 42.1568 188.029 42.2126C189.835 42.2561 191.826 42.6438 193.421 43.4658C196.387 44.9877 198.219 47.3503 198.918 50.5534C199.026 51.0518 199.157 51.9048 199.312 53.1124C199.327 53.222 199.279 53.2768 199.17 53.2768H190.176C190.046 53.2768 189.973 53.2127 189.959 53.0845C189.714 50.8047 188.51 49.4895 186.133 49.4802C184.619 49.474 183.163 49.4699 181.765 49.4678C179.345 49.4616 177.405 50.4904 175.945 52.5541C173.643 55.811 175.291 60.442 179.628 60.4203C189.233 60.3666 198.657 60.35 207.9 60.3707C207.982 60.3707 208.011 60.3304 207.987 60.2497Z" fill="#412685"/>
<path d="M270.76 49.8617C270.707 49.7462 270.622 49.6482 270.515 49.5795C270.408 49.5107 270.283 49.4741 270.155 49.474L223.142 49.4709C223.133 49.4711 223.125 49.4693 223.117 49.4657C223.109 49.462 223.102 49.4566 223.096 49.4498C223.091 49.443 223.087 49.435 223.084 49.4263C223.082 49.4176 223.081 49.4085 223.083 49.3996L224.364 42.3305C224.371 42.289 224.392 42.2513 224.425 42.224C224.457 42.1967 224.498 42.1817 224.541 42.1816C239.978 42.1982 255.511 42.194 271.139 42.1692C272.942 42.1671 274.284 42.2954 275.166 42.5538C276.814 43.0419 278.072 44.0158 278.941 45.4758C279.756 46.8447 279.989 48.4825 279.639 50.389C279.618 50.5048 279.549 50.5627 279.431 50.5627L271.086 50.5565C270.945 50.5545 270.874 50.4831 270.872 50.3425C270.868 50.1771 270.83 50.0168 270.76 49.8617Z" fill="#372568"/>
<path d="M269.249 59.5457C269.656 58.8013 269.159 58.2213 268.396 58.1685C264.251 57.8914 260.65 57.6164 257.594 57.3434C255.627 57.1656 253.983 56.4139 252.664 55.0884C251.702 54.1269 251.677 53.0505 251.429 51.7881C251.409 51.6826 251.452 51.6299 251.559 51.6299C253.861 51.6402 256.168 51.6433 258.478 51.6392C260.54 51.6351 262.588 51.7188 264.624 51.8904C267.097 52.0993 269.654 52.3278 272.293 52.5759C273.11 52.6525 274.137 53.004 275.373 53.6306C276.964 54.437 277.838 55.8494 277.995 57.8676C278.204 60.5435 277.466 62.7303 275.783 64.428C273.75 66.4793 271.354 67.5278 268.595 67.5733C265.124 67.6312 261.167 67.6374 256.722 67.5919C253.995 67.5608 251.398 66.1805 250.337 63.6432C249.791 62.3384 249.689 60.9343 250.03 59.431C250.059 59.3069 250.137 59.2449 250.263 59.2449H258.571C258.716 59.2449 258.775 59.3152 258.748 59.4558C258.633 60.0637 259.198 60.3243 259.734 60.3243C262.69 60.3326 265.534 60.3326 268.266 60.3243C268.638 60.3243 268.966 60.0648 269.249 59.5457Z" fill="#372568"/>
<path d="M243.924 58.6182L247.88 67.4335C247.934 67.5576 247.893 67.6196 247.759 67.6196H238.967C238.919 67.6198 238.872 67.6058 238.832 67.5794C238.792 67.5529 238.76 67.5152 238.74 67.4708L235.08 59.0896C235.034 58.9862 234.955 58.9345 234.844 58.9345H230.355C230.31 58.9346 230.266 58.9504 230.231 58.9793C230.197 59.0082 230.173 59.0484 230.165 59.0927L228.667 67.5235C228.655 67.5876 228.616 67.6196 228.552 67.6196H220.123C219.97 67.6196 219.907 67.5442 219.934 67.3932L222.729 51.8004C222.748 51.697 222.809 51.6453 222.912 51.6453H250.613C250.733 51.6453 250.77 51.7001 250.725 51.8097C250.586 52.1467 250.445 52.5241 250.3 52.9418C249.255 55.9547 247.172 57.7662 244.049 58.3762C243.906 58.4031 243.864 58.4837 243.924 58.6182Z" fill="#372568"/>
</svg>
