<svg width="667" height="560" viewBox="0 0 667 560" fill="none" xmlns="http://www.w3.org/2000/svg">
<path d="M63.1375 247.217C63.1375 247.217 335.879 135.625 430.471 96.3333C466.729 80.6167 589.7 30.3208 589.7 30.3208C589.7 30.3208 646.454 8.32084 641.725 61.7542C640.146 83.7583 627.533 160.771 614.921 244.071C596.004 361.95 575.508 490.825 575.508 490.825C575.508 490.825 572.358 526.975 545.558 533.263C518.754 539.55 474.612 511.258 466.729 504.971C460.425 500.254 348.492 429.529 307.504 394.954C296.467 385.525 283.854 366.662 309.079 344.658C365.833 292.796 433.625 228.354 474.613 187.492C493.529 168.629 512.45 124.621 433.625 178.058C321.692 255.071 211.333 327.371 211.333 327.371C211.333 327.371 186.113 343.087 138.817 328.942C91.5209 314.796 36.3417 295.937 36.3417 295.937C36.3417 295.937 -1.49164 272.358 63.1459 247.217H63.1375Z" stroke="white" stroke-width="50"/>
</svg>
