<svg width="717" height="700" viewBox="0 0 717 700" fill="none" xmlns="http://www.w3.org/2000/svg">
<path fill-rule="evenodd" clip-rule="evenodd" d="M83.6674 350C83.6674 193.519 210.52 66.6667 367 66.6667C523.48 66.6667 650.333 193.519 650.333 350C650.333 506.48 523.48 633.333 367 633.333C311.26 633.333 259.376 617.273 215.599 589.537C207.452 584.377 197.469 582.997 188.228 585.753L92.2564 614.397L128.391 529.843C132.662 519.85 131.793 508.403 126.062 499.17C99.19 455.867 83.6674 404.797 83.6674 350ZM367 1.52588e-05C173.701 1.52588e-05 17.0007 156.7 17.0007 350C17.0007 411.27 32.772 468.943 60.4884 519.09L3.0157 653.567C-2.06504 665.457 0.187027 679.21 8.79403 688.857C17.401 698.507 30.8107 702.307 43.1997 698.607L193.18 653.85C244.415 683.217 303.79 700 367 700C560.3 700 717 543.3 717 350C717 156.7 560.3 1.52588e-05 367 1.52588e-05ZM443.417 422.747L399.61 453.603C379.093 441.917 356.41 425.603 333.657 402.85C310.003 379.197 292.467 354.777 279.537 332.377L307.377 308.747C319.323 298.607 322.593 281.511 315.233 267.676L279.761 201.009C274.985 192.032 266.372 185.727 256.372 183.885C246.371 182.043 236.077 184.867 228.416 191.553L217.899 200.732C192.608 222.805 177.65 259.077 190.047 295.803C202.899 333.877 230.328 393.8 286.517 449.99C346.97 510.443 408.377 534.25 444.287 543.497C473.22 550.943 500.6 540.96 519.893 525.24L539.61 509.173C548.043 502.303 552.593 491.747 551.8 480.897C551.003 470.047 544.963 460.267 535.617 454.697L479.673 421.363C468.373 414.633 454.173 415.173 443.417 422.747Z" fill="white"/>
</svg>
